# xmcd CD database file
#
# Track frame offsets:
#	150
#	7165
#	28295
#	46902
#	69282
#	82633
#	101152
#	124284
#
# Disc length: 2188 seconds
#
# Revision: 0
# Processed by: cddbd v1.5.1PL2 Copyright (c) Steve Scherf et al.
# Submitted via: CDex 1.51
#
DISCID=62088a08
DTITLE=Alphonso Johnson - Spellbound
DYEAR=1977
DGENRE=Jazz
TTITLE0=Summer Solstice
TTITLE1=Follow your Heart
TTITLE2=Bahama Mama
TTITLE3=Nomads
TTITLE4=Moonlight Conversations
TTITLE5=Face Blaster
TTITLE6=Feelings are ... the Hardest Words to Say
TTITLE7=Earthtales Suite
EXTD=YEAR: 1977
EXTT0=
EXTT1=
EXTT2=
EXTT3=
EXTT4=
EXTT5=
EXTT6=
EXTT7=
PLAYORDER=
